<svg width="16" height="16" viewBox="0 0 16 16" fill="none" xmlns="http://www.w3.org/2000/svg">
<path d="M14.2222 14.4H1.77778V5.6H14.2222M11.5556 0V1.6H4.44444V0H2.66667V1.6H1.77778C0.791111 1.6 0 2.312 0 3.2V14.4C0 14.8243 0.187301 15.2313 0.520699 15.5314C0.854097 15.8314 1.30628 16 1.77778 16H14.2222C14.6937 16 15.1459 15.8314 15.4793 15.5314C15.8127 15.2313 16 14.8243 16 14.4V3.2C16 2.77565 15.8127 2.36869 15.4793 2.06863C15.1459 1.76857 14.6937 1.6 14.2222 1.6H13.3333V0M12.4444 8.8H8V12.8H12.4444V8.8Z" fill="#4B0097"/>
</svg>
