<svg width="16" height="20" viewBox="0 0 16 20" fill="none" xmlns="http://www.w3.org/2000/svg">
<path d="M7.18225 15.3333L12.4791 10.0364L11.1198 8.67706L7.15881 12.638L5.19006 10.6693L3.85413 12.0052L7.18225 15.3333ZM2.54163 19.0833C2.026 19.0833 1.58475 18.8999 1.21788 18.533C0.851001 18.1661 0.667251 17.7246 0.666626 17.2083V2.20831C0.666626 1.69269 0.850376 1.25144 1.21788 0.884563C1.58538 0.517688 2.02663 0.333938 2.54163 0.333313H10.0416L15.6666 5.95831V17.2083C15.6666 17.7239 15.4832 18.1655 15.1163 18.533C14.7494 18.9005 14.3079 19.0839 13.7916 19.0833H2.54163ZM9.10413 6.89581V2.20831H2.54163V17.2083H13.7916V6.89581H9.10413Z" fill="#4B0097"/>
</svg>
