<svg width="16" height="17" viewBox="0 0 16 17" fill="none" xmlns="http://www.w3.org/2000/svg">
<path d="M16 12.0018C15.9992 14.2985 14.3853 16.2181 12.2298 16.6893L11.7194 15.1581C12.6826 15.0009 13.5012 14.4137 13.9719 13.6H12C11.1163 13.6 10.4 12.8837 10.4 12V8.8C10.4 7.91632 11.1163 7.2 12 7.2H14.3505C13.9568 4.04295 11.2637 1.6 8 1.6C4.7363 1.6 2.04319 4.04295 1.64951 7.2H4C4.88366 7.2 5.6 7.91632 5.6 8.8V12C5.6 12.8837 4.88366 13.6 4 13.6H1.6C0.716344 13.6 0 12.8837 0 12V8C0 3.58172 3.58172 0 8 0C12.4182 0 16 3.58172 16 8V8.79896V8.8V12V12.0018Z" fill="#4B0097"/>
</svg>
