<svg width="13" height="12" viewBox="0 0 13 12" fill="none" xmlns="http://www.w3.org/2000/svg">
<path d="M0 11.1C0 8.76461 2.06537 6.87143 4.61313 6.87143C7.1609 6.87143 9.22625 8.76461 9.22625 11.1H0ZM4.61313 6.34286C2.70156 6.34286 1.15328 4.92364 1.15328 3.17143C1.15328 1.41921 2.70156 0 4.61313 0C6.52469 0 8.07297 1.41921 8.07297 3.17143C8.07297 4.92364 6.52469 6.34286 4.61313 6.34286ZM8.85882 7.52326C10.638 7.94004 11.9756 9.36814 12.1 11.1H10.3795C10.3795 9.72053 9.80301 8.46449 8.85882 7.52326ZM7.69245 6.32008C8.63393 5.54588 9.22625 4.42207 9.22625 3.17143C9.22625 2.42226 9.0137 1.7186 8.6409 1.10835C9.96164 1.34996 10.9562 2.41803 10.9562 3.7C10.9562 5.16018 9.66594 6.34286 8.07297 6.34286C7.94398 6.34286 7.81694 6.33509 7.69245 6.32008Z" fill="#4B0097"/>
</svg>
